# xmcd
#
# Track frame offsets: 
#        300
#        20029
#        35438
#        55870
#        105092
#        124933
#
# Disc length: 1992 seconds
#
# Revision: 0
# Processed by: cddbd v1.5.2PL0 Copyright (c) Steve Scherf et al.
# Submitted via: ExactAudioCopy v0.95b4
#
DISCID=4707c406
DTITLE=Tom Waits - El Paso TX June 20th 2008 Disc 2
DYEAR=2008
DGENRE=Blues
TTITLE0=Lost In The Harbor
TTITLE1=Lie To Me
TTITLE2=Goin' Out West
TTITLE3=Jesus Gonna Be Here
TTITLE4=Make It Rain
TTITLE5=Dirt In The Ground
EXTD=
EXTT0=
EXTT1=
EXTT2=
EXTT3=
EXTT4=
EXTT5=
PLAYORDER=
